<?xml version="1.0" encoding="UTF-8"?>
<svg width="244px" height="41px" viewBox="0 0 244 41" version="1.1" xmlns="http://www.w3.org/2000/svg" xmlns:xlink="http://www.w3.org/1999/xlink">
    <!-- Generator: Sketch 52.6 (67491) - http://www.bohemiancoding.com/sketch -->
    <title>logo-puma-energy</title>
    <desc>Created with Sketch.</desc>
    <defs>
        <polygon id="path-1" points="0.3397 0.9001 4.3327 0.9001 4.3327 7 0.3397 7"></polygon>
        <polygon id="path-3" points="0.2948 0.7562 4.3628 0.7562 4.3628 7 0.2948 7"></polygon>
    </defs>
    <g id="Page-1" stroke="none" stroke-width="1" fill="none" fill-rule="evenodd">
        <g id="logo-puma-energy">
            <path d="M34.1766,15.7034 L31.8686,15.7024 L34.0986,12.7304 L35.8736,12.7304 C35.8736,12.7304 35.9106,12.7264 35.9736,12.7264 C36.2536,12.7264 37.0276,12.7744 37.1786,13.2864 C37.4076,14.0654 36.5076,15.0534 36.1026,15.2924 C35.6576,15.5554 34.9736,15.7034 34.1766,15.7034 M101.9896,15.8354 L96.8466,15.8354 L98.8986,13.0614 L102.3596,13.0614 C102.8146,13.0614 103.0806,13.2554 103.1696,13.5614 C103.2836,13.9294 103.0936,14.2414 103.0936,14.2414 L101.9896,15.8354 M93.0306,20.9284 L97.8076,20.9284 L95.3486,24.1594 L102.3596,24.1594 C102.3596,24.1594 108.7706,16.0624 109.2656,15.3344 C109.7716,14.6084 110.7226,12.2874 109.4046,10.0594 C108.1876,7.9984 105.4516,7.9214 105.0446,7.9214 L104.9946,7.9214 L95.7566,7.9214 L83.6156,24.1594 L90.5336,24.1594 L93.0306,20.9284 M71.2466,7.9654 L59.0146,24.2504 L65.7436,24.2504 L71.9806,16.4714 L72.3346,20.2904 L79.3816,16.7004 L73.6536,24.2034 L80.7106,24.2034 L92.8916,7.9214 L84.8426,7.9214 L77.7466,12.1514 L77.2896,7.9654 L71.2466,7.9654 M40.6636,8.0454 C40.5626,8.0454 40.5126,8.0464 40.5126,8.0464 L29.8656,8.0874 L17.8666,24.2794 L24.5686,24.2674 L27.4846,20.6514 L33.8846,20.6514 C34.0486,20.6604 34.2146,20.6614 34.3796,20.6614 C39.1676,20.6614 41.0836,17.7064 41.0836,17.7064 L43.4146,14.5494 C43.4146,14.5494 45.0246,12.3544 44.1736,10.0824 C43.4656,8.1814 41.2846,8.0454 40.6636,8.0454 M50.0056,7.9654 L42.4146,18.0184 C42.4146,18.0184 41.0446,19.8364 41.6776,21.6554 C42.3236,23.4754 44.1356,24.4304 45.7336,24.5674 L49.3216,24.7474 C49.3216,24.7474 49.6116,24.7664 50.0556,24.7664 C51.1196,24.7664 53.1086,24.6744 54.5036,24.0674 C56.5056,23.2024 58.3306,21.3844 58.5596,21.1104 C58.7866,20.8384 68.6076,7.9214 68.6076,7.9214 L60.9156,7.9214 L53.3746,18.3364 C53.3746,18.3364 52.6026,19.5174 50.9176,19.5174 C50.0926,19.5174 49.0546,18.5634 50.1936,17.2904 C50.6636,16.7614 57.3296,7.9654 57.3296,7.9654 L50.0056,7.9654 M110.0646,31.0244 L-0.0004,31.0244 L23.1936,0.0004 L133.4456,0.0004 L133.2566,0.0004 L110.0646,31.0244" id="Fill-1" fill="#037042"></path>
            <path d="M175.3699,17.4851 C177.4459,17.4851 179.6789,18.0711 182.0849,18.9221 C185.7339,20.2161 190.0079,21.2831 190.0079,21.2831 C197.8509,22.4271 207.0659,25.9291 208.8929,26.4631 C209.8259,26.7331 210.7999,26.9481 211.5519,26.9481 C212.2619,26.9481 212.7769,26.7541 212.8449,26.2331 C212.9949,25.1661 211.3219,25.1661 210.2589,25.1661 C209.1929,25.1661 207.2929,24.4051 207.2929,24.4051 C207.2929,24.4051 202.3359,21.4361 200.6659,20.2951 C198.9909,19.1511 198.6109,18.1591 199.9069,17.9331 C200.1569,17.8881 200.4109,17.8681 200.6549,17.8681 C201.6529,17.8681 202.5929,18.1741 203.6299,18.2351 C204.9339,18.3131 205.5429,18.1591 206.5329,18.9221 C206.8599,19.1751 207.1279,19.2611 207.3429,19.2611 C207.7759,19.2611 207.9759,18.9221 207.9759,18.9221 C207.9759,18.9221 209.5749,17.8561 210.1029,17.0191 C210.6359,16.1821 210.1789,15.8001 210.1789,15.8001 C210.1789,15.8001 209.8759,15.0381 209.0419,12.9071 C208.3069,11.0201 205.9499,10.6821 205.2139,10.6821 C205.1139,10.6821 205.0389,10.6891 205.0109,10.6971 C204.9749,10.7061 204.9339,10.7101 204.9079,10.7101 C204.6579,10.7101 204.4689,10.4681 204.4689,10.4681 L203.7079,9.4801 C203.7079,9.4801 201.4499,11.3221 199.7889,11.3221 C199.7009,11.3221 199.6119,11.3191 199.5239,11.3071 C196.5579,10.9021 196.4079,9.2501 188.2579,8.2591 C186.8889,8.0931 185.4189,8.0251 183.8849,8.0251 C176.2809,8.0251 167.4589,9.7561 165.9419,10.0131 C165.5329,10.0801 165.0679,10.1051 164.5849,10.1051 C162.9119,10.1051 161.0619,9.7821 161.0619,9.7821 C156.7529,9.2241 152.2769,9.0371 148.2479,9.0371 C140.1629,9.0371 133.8019,9.7821 133.8019,9.7821 C133.8019,9.7821 131.2919,10.0891 131.4419,10.8501 C131.5959,11.6121 133.6479,11.6121 133.6479,11.6121 L134.0929,11.6161 C135.1829,11.6011 141.4059,10.7851 146.0689,10.7851 L146.2069,10.7851 C150.8719,10.8001 156.3329,11.2321 156.3329,11.2321 L156.3859,11.2321 C157.1569,11.2321 160.1729,11.5151 161.2009,11.7401 C162.2639,11.9731 162.7199,12.4501 162.9499,12.8031 C163.1769,13.1591 163.0739,13.5761 162.6439,14.1761 C162.2139,14.7781 160.1989,16.3201 159.1089,17.0441 C158.3499,17.5461 157.3339,17.6561 156.2699,17.6561 C155.7869,17.6561 155.3079,17.6341 154.8239,17.6141 C154.7739,17.6131 154.7239,17.6131 154.6859,17.6131 C153.2279,17.6131 152.6329,18.5541 152.6329,18.5541 C150.3649,20.7931 148.3739,21.8881 147.8549,22.1801 C147.3229,22.4731 146.5369,22.9221 146.0949,23.2761 C145.6499,23.6291 144.1159,24.0291 143.1939,24.1061 C142.2659,24.1871 142.1929,24.5861 142.1929,24.5861 L141.5059,25.7431 C141.1139,26.3531 141.8209,26.3901 141.8209,26.3901 C142.6459,26.5281 143.3439,26.5971 143.9649,26.5971 C146.4249,26.5971 147.6409,25.5251 150.7959,23.6291 C153.4809,22.0141 155.0419,21.6671 156.5999,21.6671 C157.3989,21.6671 158.1969,21.7561 159.1599,21.8181 C159.7809,21.8531 160.3909,21.8821 161.0099,21.8821 C162.5319,21.8821 164.0249,21.7061 165.3299,21.0561 C167.1559,20.1381 169.3619,19.0751 172.2629,18.0091 C173.2529,17.6441 174.2929,17.4851 175.3699,17.4851 M220.3169,31.0241 L110.0639,31.0241 L133.2559,0.0001 L243.5109,0.0001 L220.3169,31.0241" id="Fill-15" fill="#D91F26"></path>
            <g id="Group" transform="translate(21.000000, 33.805300)">
                <path d="M3.3543,6.8498 L0.4993,6.8498 C0.3503,6.8498 0.3133,6.8268 0.3133,6.6668 L0.3133,1.0798 C0.3133,0.9238 0.3503,0.8998 0.4993,0.8998 L3.3413,0.8998 C3.5183,0.8998 3.5683,0.9178 3.5683,0.9958 L3.5313,1.1158 L3.3673,1.6988 C3.3413,1.8298 3.2403,1.8368 3.1763,1.8368 L1.4873,1.8368 L1.4873,3.2728 L2.9603,3.2728 C3.1253,3.2728 3.1513,3.2968 3.1513,3.4558 L3.1513,4.0288 C3.1513,4.1838 3.1133,4.2078 2.9603,4.2078 L1.4873,4.2078 L1.4873,5.9128 L3.3413,5.9128 C3.5053,5.9128 3.5313,5.9368 3.5313,6.0958 L3.5313,6.6668 C3.5313,6.8268 3.5053,6.8498 3.3543,6.8498" id="Fill-20" fill="#231F20"></path>
                <path d="M18.7894,6.8498 L18.2174,6.8498 C18.0924,6.8498 18.0664,6.8328 18.0174,6.7288 L16.4324,3.7658 C16.1664,3.2818 16.0274,2.9768 15.9374,2.5848 L15.9144,2.5848 C15.9144,2.6978 15.9374,3.1418 15.9374,3.5398 L15.9374,6.6668 C15.9374,6.8268 15.9144,6.8498 15.7604,6.8498 L15.1274,6.8498 C14.9744,6.8498 14.9494,6.8268 14.9494,6.6668 L14.9494,1.0798 C14.9494,0.9238 14.9744,0.8998 15.1274,0.8998 L15.8364,0.8998 C15.9644,0.8998 15.9904,0.9178 16.0394,1.0108 L17.4714,3.7038 C17.7124,4.1668 17.8784,4.6078 17.9784,4.9658 L18.0044,4.9658 C18.0044,4.6898 17.9784,4.0818 17.9784,3.8348 L17.9784,1.0798 C17.9784,0.9238 18.0174,0.8998 18.1554,0.8998 L18.7894,0.8998 C18.9424,0.8998 18.9794,0.9238 18.9794,1.0798 L18.9794,6.6668 C18.9794,6.8268 18.9544,6.8498 18.7894,6.8498" id="Fill-22" fill="#231F20"></path>
                <path d="M33.7825,6.8498 L30.9315,6.8498 C30.7785,6.8498 30.7405,6.8268 30.7405,6.6668 L30.7405,1.0798 C30.7405,0.9238 30.7785,0.8998 30.9315,0.8998 L33.7825,0.8998 C33.9465,0.8998 33.9965,0.9178 33.9965,0.9958 L33.9715,1.1158 L33.8085,1.6988 C33.7695,1.8298 33.6675,1.8368 33.6045,1.8368 L31.9195,1.8368 L31.9195,3.2728 L33.3905,3.2728 C33.5535,3.2728 33.5795,3.2968 33.5795,3.4558 L33.5795,4.0288 C33.5795,4.1838 33.5415,4.2078 33.3905,4.2078 L31.9195,4.2078 L31.9195,5.9128 L33.7825,5.9128 C33.9345,5.9128 33.9595,5.9368 33.9595,6.0958 L33.9595,6.6668 C33.9595,6.8268 33.9345,6.8498 33.7825,6.8498" id="Fill-24" fill="#231F20"></path>
                <g id="Group-28" transform="translate(45.000000, 0.000000)">
                    <mask id="mask-2" fill="white">
                        <use xlink:href="#path-1"></use>
                    </mask>
                    <g id="Clip-27"></g>
                    <path d="M1.5067,1.8151 L1.5067,3.4781 L1.7337,3.4781 C2.3037,3.4781 2.7867,3.3921 2.7867,2.5951 C2.7867,1.8371 2.2797,1.8151 1.8367,1.8151 L1.5067,1.8151 M3.3047,7.0001 C3.2547,7.0001 3.1917,6.8941 3.1027,6.7291 L1.9247,4.3941 L1.5067,4.3941 L1.5067,6.6671 C1.5067,6.8261 1.4817,6.8491 1.3287,6.8491 L0.5187,6.8491 C0.3787,6.8491 0.3397,6.8261 0.3397,6.6671 L0.3397,1.0801 C0.3397,0.9241 0.3787,0.9001 0.5187,0.9001 L1.9247,0.9001 C2.5957,0.9001 3.9517,0.9441 3.9517,2.5761 C3.9517,3.6961 3.2817,4.0181 2.9647,4.1841 L4.2547,6.5021 L4.3327,6.6671 L4.1537,6.7751 L3.4197,6.9811 L3.3047,7.0001" id="Fill-26" fill="#231F20" mask="url(#mask-2)"></path>
                </g>
                <g id="Group-31" transform="translate(60.000000, 0.000000)">
                    <mask id="mask-4" fill="white">
                        <use xlink:href="#path-3"></use>
                    </mask>
                    <g id="Clip-30"></g>
                    <path d="M2.6268,7.0002 C1.0938,7.0002 0.2948,6.0082 0.2948,3.9082 C0.2948,1.8462 1.0938,0.7562 2.6408,0.7562 C3.4248,0.7562 4.2628,1.1342 4.2628,1.2832 L4.2098,1.4132 L3.9338,1.9872 L3.8298,2.0732 C3.7798,2.0732 3.2988,1.6912 2.7038,1.6912 C1.8158,1.6912 1.5378,2.5172 1.5378,3.8462 C1.5378,5.2042 1.7528,6.0602 2.7038,6.0602 C3.0208,6.0602 3.2498,5.9582 3.3258,5.9222 L3.3258,4.6622 L2.6668,4.6622 C2.5258,4.6622 2.4868,4.6362 2.4868,4.4812 L2.4868,3.9082 C2.4868,3.7512 2.5258,3.7252 2.6668,3.7252 L4.1868,3.7252 C4.3248,3.7252 4.3628,3.7512 4.3628,3.9082 L4.3628,6.3222 C4.3628,6.6882 3.3378,7.0002 2.6268,7.0002" id="Fill-29" fill="#231F20" mask="url(#mask-4)"></path>
                </g>
                <path d="M77.9119,6.8498 L77.1149,6.8498 C76.9609,6.8498 76.9239,6.8268 76.9239,6.6668 L76.9239,4.4118 L75.2869,1.2448 L75.2359,1.0658 L75.4139,0.9688 L76.2899,0.8288 L76.3769,0.8228 L76.5029,0.9358 L77.2149,2.4198 C77.3029,2.6288 77.4409,2.9168 77.5569,3.3658 L77.5799,3.3658 C77.7329,2.8558 77.8489,2.5848 77.9619,2.3528 L78.6079,0.9958 C78.6829,0.8228 78.7079,0.8228 78.7489,0.8228 L78.8879,0.8388 L79.6219,0.9958 L79.7749,1.1068 L79.7119,1.2448 L78.0999,4.4118 L78.0999,6.6668 C78.0999,6.8268 78.0649,6.8498 77.9119,6.8498" id="Fill-32" fill="#231F20"></path>
            </g>
        </g>
    </g>
</svg>